# xmcd
#
# Track frame offsets: 
#        150
#        21981
#        38389
#        54058
#        77354
#        92099
#        105719
#        121881
#        139622
#        156172
#        172392
#        189240
#
# Disc length: 2777 seconds
#
# Revision: 1
# Processed by: cddbd v1.5.2PL0 Copyright (c) Steve Scherf et al.
# Submitted via: ExactAudioCopy v1.0b3
#
DISCID=8a0ad70c
DTITLE=Ruby Andrews - Hip Shakin' Mama
DYEAR=1998
DGENRE=Blues
TTITLE0=Fishin' for A Man
TTITLE1=You'll Miss Me ( When I'm Gone )
TTITLE2=You Can't Play The Blues (In An Air Conditioned Room )
TTITLE3=Hip Shakin' Mama
TTITLE4=I Found You
TTITLE5=Somebody Touched Me
TTITLE6=Strange Things Happening Everyday
TTITLE7=Change
TTITLE8=A Lesson In Leavin'
TTITLE9=Yousa Hard Dog ( To Keep Under The Porch )
TTITLE10=Danny's All Star Joint
TTITLE11=Footprints On The Celing
EXTD=
EXTT0=
EXTT1=
EXTT2=
EXTT3=
EXTT4=
EXTT5=
EXTT6=
EXTT7=
EXTT8=
EXTT9=
EXTT10=
EXTT11=
PLAYORDER=
